<svg xmlns="http://www.w3.org/2000/svg" width="40" height="40" viewBox="0 0 40 40">
    <g fill="#AAFFAA">
        <path d="M11 33H7.2v-8H11v8zm-2.8-1H10v-6H8.2v6zM16.4 33h-3.8V23h3.8v10zm-2.8-1h1.8v-8h-1.8v8zM21.9 33h-3.8V18.7h3.8V33zm-2.8-1h1.8V19.7h-1.8V32zM27.4 33h-3.8V21.8h3.8V33zm-2.8-1h1.8v-9.2h-1.8V32zM32.8 33H29V13.6h3.8V33zM30 32h1.8V14.6H30V32zM9.3 20.3l-.4-.9 5.4-2.4 5.6-4.7 5.4 2.9 5.2-7.4.8.5-5.7 8.2-5.6-3-5.3 4.4z"/>
        <circle cx="9.1"  cy="19.8" r="1"/>
        <circle cx="14.5" cy="17.4" r="1"/>
        <circle cx="20"   cy="12.9" r="1"/>
        <circle cx="25.5" cy="15.8" r="1"/>
        <circle cx="30.9" cy="8"    r="1"/>
    </g>
</svg>